<svg xmlns="http://www.w3.org/2000/svg" width="10" height="10" viewBox="0 0 10 10">
  <path fill="#DDE1E6" d="M215.444444,15 L215.468639,15.0005238 C215.483417,15.001164 215.498174,15.0023911 215.512873,15.0042051 L215.444444,15 C215.487177,15 215.528783,15.0048246 215.568746,15.0139589 C215.581108,15.0168314 215.593505,15.0201149 215.605798,15.0238336 C215.623598,15.0291897 215.640981,15.0354382 215.657939,15.0425029 C215.669808,15.0474361 215.681528,15.0527931 215.693088,15.0585786 C215.709614,15.0668951 215.725705,15.0760007 215.741272,15.0858589 C215.754355,15.0940751 215.767405,15.103128 215.780133,15.1128033 C215.791843,15.1217541 215.802927,15.1308788 215.813638,15.1404118 C215.821453,15.1473473 215.829455,15.1548917 215.837282,15.1627185 L215.851189,15.1771339 C215.861129,15.1878131 215.870654,15.1988842 215.879737,15.2103216 L215.837282,15.1627185 C215.865639,15.1910763 215.890291,15.2217371 215.911235,15.2540989 C215.916315,15.2620156 215.921594,15.2706573 215.92664,15.2794502 C215.937494,15.2983357 215.946881,15.3172078 215.95513,15.336451 C215.959524,15.3466608 215.963833,15.3576052 215.967799,15.3687127 C215.974842,15.3885978 215.980634,15.4083508 215.98531,15.4283122 C215.9875,15.4374062 215.989504,15.4470697 215.991253,15.4568215 C215.995032,15.4782103 215.997572,15.4993466 215.998903,15.5205446 C215.999201,15.5251129 215.999439,15.5299126 215.999617,15.5347279 L216,15.5555556 L216,22.7777778 C216,23.0846026 215.751269,23.3333333 215.444444,23.3333333 C215.144593,23.3333333 214.900225,23.0957801 214.889272,22.7986054 L214.888889,22.7777778 L214.888,16.897 L206.948393,24.8372815 C206.731435,25.0542395 206.379676,25.0542395 206.162718,24.8372815 C205.951324,24.6258866 205.945903,24.2865155 206.146457,24.0685577 L206.162718,24.0516073 L214.102,16.111 L208.222222,16.1111111 C207.922371,16.1111111 207.678003,15.8735579 207.66705,15.5763832 L207.666667,15.5555556 C207.666667,15.255704 207.90422,15.0113359 208.201395,15.0003832 L215.444444,15 Z" transform="translate(-206 -15)"/>
</svg>
